# xmcd
#
# Track frame offsets:
#	150
#	13902
#	30957
#	41362
#	55255
#	65442
#	77010
#	91867
#	102435
#	116492
#	128365
#	142997
#
# Disc length: 2065 seconds
#
# Revision: 1
# Processed by: cddbd v1.5.2PL0 Copyright (c) Steve Scherf et al.
# Submitted via: audiograbber 1.83.01
#
DISCID=8c080f0c
DTITLE=Various Artist - Böhmische Spezialitäten
DYEAR=1900
DGENRE=
TTITLE0=Maxl Graf - Bittascheen
TTITLE1=Hubert Wolf - Es war im Böhmerwald
TTITLE2=Hubert Wolf - Die kleine Spieluhr
TTITLE3=Hubert Wolf - Unterm Lindenbaum
TTITLE4=Hubert Wolf - Golderner Hörnerklang
TTITLE5=Hubert Wolf - Böhmerländer Musikantenmarsch
TTITLE6=Hubert Wolf - Der schönste Stern
TTITLE7=Hubert Wolf - Kaiserjäger Regimentsmarsch
TTITLE8=Maxl Graf - So eine Scheene
TTITLE9=Hubert Wolf - Schön wars in Böhmen Österreich...
TTITLE10=Peter Alexander - Oh Mister Svoboda
TTITLE11=Hubert Wolf - Servus
EXTD=
EXTT0=
EXTT1=
EXTT2=
EXTT3=
EXTT4=
EXTT5=
EXTT6=
EXTT7=
EXTT8=
EXTT9=
EXTT10=
EXTT11=
PLAYORDER=
